# xmcd CD database file
#
# Track frame offsets:
#	150
#	21108
#	41476
#	62490
#	80113
#	102472
#	121770
#	139308
#	156228
#	173209
#	186783
#	201752
#	221996
#	241606
#	258406
#	276658
#
# Disc length: 3888 seconds
#
# Revision: 0
# Processed by: cddbd v1.5.1PL0 Copyright (c) Steve Scherf et al.
# Submitted via: CDex 1.51
#
DISCID=ed0f2e10
DTITLE=Various Artist - Sylt - Finest Lounge Music No.1
DYEAR=2002
DGENRE=Chill
TTITLE0=Nightcruzer - Lazy Day
TTITLE1=Stargazer - Eastend
TTITLE2=Eduard Arroya - Ring ..Hello (Close Your Eyes
TTITLE3=Chambre Individuelle - Journey To A Friend
TTITLE4=Comuna De Musica
TTITLE5=AKMusique - And Suddenly It's Moring
TTITLE6=Frame By Frame - Seaguls
TTITLE7=Flunk - Sugar Planet
TTITLE8=Velocity - Among The Reed
TTITLE9=Dreamwaver - Delicate Emotions (Island Mix)
TTITLE10=Joe De Mar - Joy
TTITLE11=Sunrise - Batida De Noche
TTITLE12=Nightwalker - Nightwalk
TTITLE13=Mindprint Traveller - Sentimentu
TTITLE14=Comatrixx - Champagner and Lobster
TTITLE15=Lemongrass - Elements
EXTD=YEAR: 2002
EXTT0=
EXTT1=
EXTT2=
EXTT3=
EXTT4=
EXTT5=
EXTT6=
EXTT7=
EXTT8=
EXTT9=
EXTT10=
EXTT11=
EXTT12=
EXTT13=
EXTT14=
EXTT15=
PLAYORDER=
